<svg xmlns="http://www.w3.org/2000/svg" xmlns:xlink="http://www.w3.org/1999/xlink" width="764px" height="410px" viewBox="0 0 764 410" version="1.1" preserveAspectRatio="xMidYMid meet" ><defs id="svgEditorDefs"><linearGradient gradientUnits="objectBoundingBox" id="lgrd2-peachpuff-sienna-h" spreadMethod="pad" x1="0%" x2="100%" y1="0%" y2="0%"><stop offset="0%" style="stop-color:peachpuff;  stop-opacity:1;"/><stop offset="100%" style="stop-color:sienna;  stop-opacity:1"/></linearGradient><polygon id="svgEditorIconDefs" style="fill:rosybrown;"/><polygon id="svgEditorShapeDefs" style="fill:rosybrown;stroke:black;vector-effect:non-scaling-stroke;stroke-width:1px;"/></defs><rect id="svgEditorBackground" x="0" y="0" width="512" height="209" style="stroke: none;fill:none;"/>
    <defs>
        <linearGradient x1="23.9620816%" y1="46.0431549%" x2="68.7842661%" y2="55.6019873%" id="linearGradient-1">
            <stop stop-color="#919191" offset="0%"/>
            <stop stop-color="#FFFFFF" offset="100%"/>
        </linearGradient>
        <linearGradient x1="26.4273967%" y1="42.3814821%" x2="67.1321895%" y2="51.9064126%" id="linearGradient-2">
            <stop stop-color="#990000" offset="0%"/>
            <stop stop-color="#E80000" offset="100%"/>
        </linearGradient>
        <linearGradient x1="49.9999984%" y1="99.8215962%" x2="49.9999984%" y2="-0.0435244247%" id="linearGradient-3">
            <stop stop-color="#1A1A1A" offset="0%"/>
            <stop stop-color="#4A4A4C" offset="40.26%"/>
            <stop stop-color="#333333" offset="100%"/>
        </linearGradient>
    </defs>
    <g id="e4_group" transform="matrix(1 0 0 1 -17.4518 19.3909)"><g id="?">
        <g>
            <g transform="matrix(1 0 0 1 659.401 25.2082)">
                <path d="M65.0729045,4.29161793 C64.9730994,4.69083821 64.9730994,5.09005848 65.0729045,5.48927875 C65.0729045,5.48927875 66.3703704,13.9727096 64.8732943,17.7653021 L3.39337232,177.752827 C-0.998050682,189.529825 4.89044834,202.604288 16.6674464,207.095517 C28.4444444,211.586745 41.5189084,205.798051 46.2097466,194.120858 L46.2097466,194.120858 L107.689669,34.1333333 C108.887329,31.0393762 115.773879,24.9512671 115.773879,24.9512671 C116.073294,24.6518519 116.37271,24.3524366 116.57232,24.0530214 L116.57232,23.9532164 C116.57232,23.8534113 116.672125,23.8534113 116.672125,23.7536062 C118.269006,19.6615984 107.989084,11.8768031 93.8167641,6.38752437 C79.6444444,0.898245614 66.7695906,-0.199610136 65.1727096,3.99220273 C65.1727096,3.99220273 65.0729045,4.0920078 65.0729045,4.29161793 L65.0729045,4.29161793 L65.0729045,4.29161793 Z" opacity="0.1" fill="#000000"/>
                
                <path d="M82.6385965,75.2530214 L38.2253411,190.62768 C34.9317739,198.911501 25.4502924,203.203119 16.9668616,199.909552 C8.4834308,196.615984 3.99220273,186.934893 7.08615984,178.651072 L7.08615984,178.651072 L35.4307992,104.895127 C35.4307992,104.895127 38.9239766,99.2062378 45.9103314,95.11423 C52.8966862,91.0222222 58.585575,91.9204678 66.2705653,88.5270955 C74.0553606,85.1337232 82.6385965,75.2530214 82.6385965,75.2530214 L82.6385965,75.2530214 Z" fill="url(#linearGradient-2)" transform="matrix(0.999998 -0.00220627 0.00220627 0.999998 -0.789434 4.94596)"/>
                <path d="M104.176205,19.018572 C105.06086,16.7101042 98.6932874,12.1033302 89.9538338,8.72905419 C81.2143802,5.3547782 73.4124988,4.49076996 72.5278439,6.79923776 C71.643189,9.10770557 78.0107615,13.7144796 86.7502152,17.0887556 C95.4896688,20.4630316 103.29155,21.3270399 104.176205,19.018572 L104.176205,19.018572 Z" fill="#333333"/>
                <path d="M62.8627119,4.08047619 C62.8627119,4.08047619 64.1516949,12.54 62.6644068,16.3219048 L1.58644068,175.858571 C-2.77627119,187.602381 3.07372881,200.64 14.7737288,205.118571 C16.7567797,205.914762 18.8389831,206.412381 20.9211864,206.511905 C13.0881356,200.540476 9.71694915,189.990952 13.2864407,180.237619 L13.2864407,180.237619 L73.1745763,23.8857143 C73.1745763,23.8857143 64.9449153,16.222381 62.8627119,4.08047619 L62.8627119,4.08047619 Z" opacity="0.3" fill="#FFFFFF" transform="matrix(1 0 0 1 -0.484773 4.84773)"/>
                <g transform="matrix(1 0 0 1 -20.2738 149.584)" fill="#FFFFFF" opacity="0.5">
                    <ellipse cx="17.4508475" cy="2.48809524" rx="1.78474576" ry="1.79142857"/>
                    <ellipse cx="29.0516949" cy="15.3266667" rx="2.67711864" ry="2.68714286"/>
                    <ellipse cx="11.3033898" cy="30.6533333" rx="5.05677966" ry="5.07571429"/>
                    <ellipse cx="3.17288136" cy="40.0085714" rx="2.67711864" ry="2.68714286"/>
                    <ellipse cx="13.7822034" cy="59.9133333" rx="1.78474576" ry="1.79142857"/>
                </g>
            </g>
            
            <path d="M118.668226,95.4433333 C121.362963,97.6328571 126.253411,96.3390476 129.546979,92.7561905 C133.040156,88.9742857 133.539181,84.097619 130.844444,81.9080952 C128.149708,79.7185714 123.259259,81.012381 119.965692,84.7942857 C116.472515,88.5761905 115.973489,93.2538095 118.668226,95.4433333 L118.668226,95.4433333 Z M110.683821,102.509524 C109.985185,102.509524 108.687719,103.803333 109.785575,104.300952 C111.282651,104.798571 111.981287,106.092381 111.981287,107.88381 C110.683821,115.348095 101.401949,123.807619 97.8089669,126.69381 C96.9107212,127.589524 98.2081871,129.58 99.1064327,128.883333 C101.102534,127.290952 105.294347,124.006667 108.687719,119.627619 C103.098635,132.068095 92.120078,148.190952 87.9282651,153.86381 C71.5602339,176.455714 46.7087719,197.25619 29.6421053,197.25619 C15.9688109,197.25619 4.391423,188.000476 1.8962963,174.465238 C1.69668616,172.972381 -0.299415205,172.67381 0.0998050682,174.664286 C3.19376218,193.275238 17.565692,200.540476 34.9317739,200.540476 C53.9945419,200.540476 76.3508772,186.80619 88.7267057,172.67381 C108.687719,149.882857 121.562573,123.608571 118.169201,108.779524 C116.672125,103.20619 112.879532,102.310476 110.683821,102.509524 L110.683821,102.509524 Z M233.244444,152.171905 C238.534113,150.878095 242.825731,147.991905 242.825731,143.41381 C242.825731,142.91619 241.927485,142.91619 241.927485,143.41381 C241.927485,146.100952 238.833528,148.39 235.340351,148.887619 C227.156335,150.181429 210.987914,140.627143 203.402729,130.774286 C211.586745,133.859524 228.254191,129.380952 236.138791,123.708095 C243.424561,118.433333 246.318908,112.660952 246.817934,107.983333 C247.716179,100.220476 239.232749,95.642381 227.355945,100.220476 C219.77076,103.305714 210.688499,109.97381 201.207018,122.51381 C211.187524,106.092381 230.849123,79.2209524 250.111501,62.1028571 C273.565692,41.302381 287.139181,45.2833333 266.080312,67.377619 C257.397271,76.4342857 241.02924,88.1780952 229.751267,93.2538095 C226.25809,94.7466667 227.954776,96.7371429 230.449903,95.642381 C242.426511,90.367619 258.395322,79.5195238 268.076413,70.4628571 C296.620663,43.0938095 272.767251,22.492381 241.22885,51.4538095 C219.77076,71.06 205.798051,91.7609524 193.621832,118.532857 C189.430019,123.608571 186.336062,127.788571 182.54347,130.973333 C182.044444,131.371429 181.745029,131.769524 181.445614,132.167619 C170.966082,141.124762 154.498246,153.266667 144.218324,153.36619 C136.932554,153.565238 133.838596,148.091429 135.136062,141.025238 C137.132164,129.978095 148.609747,116.940476 158.390643,112.461905 C171.065887,106.689524 178.551267,117.935714 161.883821,126.892857 C155.496296,130.177143 147.911111,131.968571 144.817154,131.968571 C141.224172,131.968571 141.523587,133.461429 144.617544,133.560952 C149.707602,133.76 157.891618,131.570476 163.281092,129.082381 C180.347758,120.921429 181.445614,105.694286 162.881871,105.196667 C142.721248,104.5 118.568421,121.618095 118.768031,143.214762 C118.967641,152.968095 126.752437,158.242857 137.431579,158.242857 C155.296686,158.04381 171.165692,144.508571 184.240156,132.565714 C186.136452,130.973333 187.932943,129.281429 189.729435,127.49 C185.138402,139.034762 182.842885,149.783333 183.940741,157.745238 C184.639376,163.517619 187.932943,166.204762 190.527875,168.394286 C191.026901,168.792381 192.124756,168.394286 191.426121,167.299524 C187.633528,162.820952 188.731384,149.385238 193.921248,136.347619 C198.412476,145.105714 215.479142,156.152857 233.244444,152.171905 L233.244444,152.171905 Z M211.786355,114.352857 C232.645614,95.7419048 240.82963,112.362381 227.555556,122.51381 C220.669006,127.788571 206.995712,131.769524 202.704094,129.181905 L201.805848,128.684286 C201.306823,127.788571 200.707992,126.892857 200.308772,125.997143 C203.801949,121.817143 207.794152,117.935714 211.786355,114.352857 L211.786355,114.352857 Z M327.759844,93.2538095 C336.14347,94.1495238 332.650292,83.9980952 324.166862,86.5857143 C320.374269,87.6804762 316.681481,94.9457143 313.986745,101.215714 C305.603119,113.65619 291.630409,130.674762 281.849513,139.631905 C273.166472,147.09619 265.182066,149.086667 274.962963,135.153333 C278.955166,129.58 284.045224,123.608571 286.939571,117.637143 C293.826121,102.609048 279.154776,95.9409524 267.277973,104.997619 C260.391423,110.272381 251.109552,121.120476 243.823782,127.091905 C241.82768,128.684286 242.326706,131.072857 244.322807,129.480476 C250.111501,124.802857 260.291618,114.054286 269.074464,107.784286 C276.360234,102.210952 279.254581,105.79381 275.062768,110.471429 C269.274074,117.139524 259.093957,128.78381 256.499025,136.148571 C252.906043,147.195714 257.197661,152.072381 264.483431,152.072381 C274.463938,152.072381 289.334893,136.546667 299.3154,124.205714 C302.608967,120.025714 306.201949,115.149048 309.295906,110.471429 C300.612865,127.290952 291.530604,144.309524 280.252632,159.735714 C264.283821,181.431905 244.322807,197.75381 225.359844,197.75381 C211.68655,197.75381 199.909552,188.498095 197.414425,174.962857 C197.214815,173.47 195.418324,173.171429 195.617934,175.161905 C198.711891,193.772857 213.083821,201.038095 230.449903,201.038095 C249.512671,201.038095 267.876803,189.990952 280.751657,176.455714 C306.700975,149.086667 309.794932,118.33381 317.779337,101.11619 C321.57193,93.2538095 325.065107,92.8557143 327.759844,93.2538095 L327.759844,93.2538095 Z M433.353606,66.88 C437.146199,60.4109524 436.946589,55.3352381 428.063938,55.3352381 C421.376998,55.5342857 409.20078,60.2119048 403.511891,64.5909524 C402.214425,65.8847619 402.813255,66.5814286 404.410136,65.8847619 C405.507992,65.4866667 406.805458,64.79 408.003119,64.292381 C414.390643,60.8090476 411.795712,68.0742857 410.398441,70.7614286 C402.813255,83.9980952 389.339571,102.609048 382.253411,111.864762 C378.860039,116.442857 375.067446,120.921429 371.374659,124.802857 C364.587914,131.271905 351.11423,142.717143 340.834308,146.499048 C307.79883,158.84 349.916569,102.708571 353.409747,98.1304762 C361.194542,88.3771429 378.660429,71.3585714 383.950097,62.7995238 C387.74269,56.3304762 387.54308,51.2547619 378.660429,51.2547619 C371.973489,51.4538095 359.797271,56.1314286 354.108382,60.5104762 C352.810916,61.8042857 353.409747,62.5009524 355.006628,61.8042857 C356.104483,61.4061905 357.401949,60.7095238 358.59961,60.2119048 C364.987135,56.7285714 362.392203,63.9938095 360.994932,66.6809524 C353.409747,79.917619 339.936062,98.5285714 332.849903,107.784286 C327.061209,115.547143 319.975049,123.31 314.48577,127.689048 C312.290058,129.480476 313.587524,131.172381 315.783236,129.679524 C317.779337,128.385714 320.673684,125.499524 323.967251,122.115714 C317.978947,134.058571 313.088499,150.878095 328.8577,152.868571 C342.331384,154.66 358.300195,141.025238 368.679922,130.87381 C369.777778,129.779048 371.075244,128.485238 372.37271,127.191429 C372.672125,126.892857 372.97154,126.594286 373.270955,126.295714 C367.282651,138.238571 362.392203,155.058095 378.161404,157.048571 C395.42768,159.437143 416.88577,136.248095 425.169591,127.689048 C426.766472,126.096667 426.267446,123.31 423.57271,126.096667 C418.682261,131.172381 402.11462,146.200476 390.138012,150.679048 C357.102534,163.02 399.220273,106.888571 402.71345,102.310476 C410.697856,92.3580952 428.063938,75.3395238 433.353606,66.88 L433.353606,66.88 Z" fill="url(#linearGradient-3)" transform="matrix(1.38912 0.0238225 -0.0238225 1.38912 38.9024 19.4072)"/>
        </g>
    </g><text style="fill:black;font-family:Arial;font-size:20px;" x="299.975" y="116.945" id="e1_texte"></text><text style="fill:red;font-family:Arial;font-size:20px;font-weight:bold;text-decoration:underline;" x="315.254" y="125.072" id="e2_texte" transform="matrix(4.6411 0 0 3.09042 -1001.65 -80.4625)">Blog</text><g style="fill:rosybrown; stroke:black; vector-effect:non-scaling-stroke;stroke-width:1px;" id="e3_shape" transform="matrix(0.406038 0.000882528 -0.000882528 0.406038 70.1991 31.4285)"><path d="M88 104h40v8h-40v-8z" transform="matrix(2.02731 0 0 2.02731 -107.66 124.896)"/><path d="M96 16v24h24z" transform="matrix(2.02731 0 0 2.02731 -107.66 124.896)"/><path d="M24,25.8v92.4c0,5.4,4.4,9.8,9.8,9.8h76.4c4.8,0,8.8,-3.5,9.6,-8h-39.8v-24h40v-48h-22.2c-5.4,0,-9.8,-4.4,-9.8,-9.8v-22.2h-54.2c-5.4,0,-9.8,4.4,-9.8,9.8Z" style="fill:red;" transform="matrix(2.02731 0 0 2.02731 -107.66 124.896)"/><path d="M80 0v8h8z" transform="matrix(2.02731 0 0 2.02731 -107.66 124.896)"/><path d="M8,9.8v92.4c0,4.8,3.5,8.8,8,9.6v-86.1c0-9.8,8-17.8,17.8-17.8h38.2v-8h-54.2c-5.4,0-9.8,4.4-9.8,9.8Z" transform="matrix(2.02731 0 0 2.02731 -107.66 124.896)"/></g></g>
</svg>